<?xml version="1.0"?>
<svg width="300" height="300" xmlns="http://www.w3.org/2000/svg" xmlns:svg="http://www.w3.org/2000/svg">
 <g class="layer">
  <title>Layer 1</title>
  <g id="svg_4" transform="matrix(1 0 0 1 0 0)">
   <svg height="300" id="svg_6" viewBox="0 0 300 300" width="300" xmlns="http://www.w3.org/2000/svg">
    <path d="m253.83,0.69l-207.74,0a11.28,11.28 0 0 0 -11.32,11.31l0,207.83a11.33,11.33 0 0 0 11.32,11.31l207.82,0a11.33,11.33 0 0 0 11.32,-11.31l0,-207.83a11.41,11.41 0 0 0 -11.4,-11.31zm2.64,215.59a6.1,6.1 0 0 1 -6.11,6.11l-200.81,0a6.1,6.1 0 0 1 -6.11,-6.11l0,-200.81a6.1,6.1 0 0 1 6.11,-6.11l200.81,0a6.09,6.09 0 0 1 6.11,6.11l0,200.81z" id="svg_7"/>
    <path d="m64.42,246.09a23.53,23.53 0 1 0 23.58,23.53a23.47,23.47 0 0 0 -23.53,-23.53l-0.05,0z" fill-opacity="0" id="svg_3"/>
    <path d="m74.57,254.59l0,29.73a3.39,3.39 0 0 1 -3.38,3.38l-14.62,0a3.39,3.39 0 0 1 -3.38,-3.38l0,-29.73a3.39,3.39 0 0 1 3.38,-3.38l14.62,0a3.46,3.46 0 0 1 3.38,3.38zm-15.11,0.17a1.57,1.57 0 0 0 1.54,1.57l5.62,0a1.57,1.57 0 0 0 1.56,-1.57a1.62,1.62 0 0 0 -1.56,-1.57l-5.51,0a1.59,1.59 0 0 0 -1.65,1.57zm12.54,3.88l-16.43,-0.17l0,22l16.43,0l0,-21.83zm-10.4,25.43a2.23,2.23 0 1 0 2.23,-2.23a2.22,2.22 0 0 0 -2.22,2.23l-0.01,0z" id="svg_2"/>
    <path d="m74.57,254.59l0,29.73a3.39,3.39 0 0 1 -3.38,3.38l-14.62,0a3.39,3.39 0 0 1 -3.38,-3.38l0,-29.73a3.39,3.39 0 0 1 3.38,-3.38l14.62,0a3.46,3.46 0 0 1 3.38,3.38zm-15.11,0.17a1.57,1.57 0 0 0 1.54,1.57l5.62,0a1.57,1.57 0 0 0 1.56,-1.57a1.62,1.62 0 0 0 -1.56,-1.57l-5.51,0a1.59,1.59 0 0 0 -1.65,1.57zm12.54,3.88l-16.43,-0.17l0,22l16.43,0l0,-21.83zm-10.4,25.43a2.23,2.23 0 1 0 2.23,-2.23a2.22,2.22 0 0 0 -2.22,2.23l-0.01,0z" fill-opacity="0" id="svg_1"/>
    <path d="m235.5,240l-171.08,0a29.68,29.68 0 0 0 0,59.36l171,0a29.68,29.68 0 0 0 0.08,-59.36zm-171.08,53.15a23.53,23.53 0 1 1 23.58,-23.53a23.47,23.47 0 0 1 -23.58,23.53z" id="svg_8"/>
    <g fill="none" id="svg_5" transform="translate(46.5, 12.5)scale(0.687)">
     <svg height="300" id="svg_9" width="300">
      <style>.background-color{ fill: #fff; }.dot-color{ fill: #000000; }.corners-square-color-0-0{ fill: #000000; }.corners-dot-color-0-0{ fill: #000000; }.corners-square-color-1-0{ fill: #000000; }.corners-dot-color-1-0{ fill: #000000; }.corners-square-color-0-1{ fill: #000000; }.corners-dot-color-0-1{ fill: #000000; }</style>

      <g class="dot-color" id="svg_10">
       <rect height="10" id="svg_11" transform="rotate(0,10,140)" width="10" x="5" y="135"/>
       <rect height="10" id="svg_12" transform="rotate(0,10,180)" width="10" x="5" y="175"/>
       <rect height="10" id="svg_13" transform="rotate(0,10,190)" width="10" x="5" y="185"/>
       <rect height="10" id="svg_14" transform="rotate(0,10,210)" width="10" x="5" y="205"/>
       <rect height="10" id="svg_15" transform="rotate(0,20,90)" width="10" x="15" y="85"/>
       <rect height="10" id="svg_16" transform="rotate(0,20,130)" width="10" x="15" y="125"/>
       <rect height="10" id="svg_17" transform="rotate(0,20,150)" width="10" x="15" y="145"/>
       <rect height="10" id="svg_18" transform="rotate(0,20,160)" width="10" x="15" y="155"/>
       <rect height="10" id="svg_19" transform="rotate(0,20,180)" width="10" x="15" y="175"/>
       <rect height="10" id="svg_20" transform="rotate(0,20,190)" width="10" x="15" y="185"/>
       <rect height="10" id="svg_21" transform="rotate(0,20,200)" width="10" x="15" y="195"/>
       <rect height="10" id="svg_22" transform="rotate(0,20,210)" width="10" x="15" y="205"/>
       <rect height="10" id="svg_23" transform="rotate(0,30,90)" width="10" x="25" y="85"/>
       <rect height="10" id="svg_24" transform="rotate(0,30,110)" width="10" x="25" y="105"/>
       <rect height="10" id="svg_25" transform="rotate(0,30,120)" width="10" x="25" y="115"/>
       <rect height="10" id="svg_26" transform="rotate(0,30,140)" width="10" x="25" y="135"/>
       <rect height="10" id="svg_27" transform="rotate(0,30,160)" width="10" x="25" y="155"/>
       <rect height="10" id="svg_28" transform="rotate(0,30,170)" width="10" x="25" y="165"/>
       <rect height="10" id="svg_29" transform="rotate(0,30,190)" width="10" x="25" y="185"/>
       <rect height="10" id="svg_30" transform="rotate(0,30,210)" width="10" x="25" y="205"/>
       <rect height="10" id="svg_31" transform="rotate(0,40,110)" width="10" x="35" y="105"/>
       <rect height="10" id="svg_32" transform="rotate(0,40,120)" width="10" x="35" y="115"/>
       <rect height="10" id="svg_33" transform="rotate(0,40,130)" width="10" x="35" y="125"/>
       <rect height="10" id="svg_34" transform="rotate(0,40,160)" width="10" x="35" y="155"/>
       <rect height="10" id="svg_35" transform="rotate(0,40,170)" width="10" x="35" y="165"/>
       <rect height="10" id="svg_36" transform="rotate(0,40,180)" width="10" x="35" y="175"/>
       <rect height="10" id="svg_37" transform="rotate(0,40,200)" width="10" x="35" y="195"/>
       <rect height="10" id="svg_38" transform="rotate(0,50,110)" width="10" x="45" y="105"/>
       <rect height="10" id="svg_39" transform="rotate(0,50,120)" width="10" x="45" y="115"/>
       <rect height="10" id="svg_40" transform="rotate(0,50,130)" width="10" x="45" y="125"/>
       <rect height="10" id="svg_41" transform="rotate(0,50,170)" width="10" x="45" y="165"/>
       <rect height="10" id="svg_42" transform="rotate(0,50,180)" width="10" x="45" y="175"/>
       <rect height="10" id="svg_43" transform="rotate(0,50,190)" width="10" x="45" y="185"/>
       <rect height="10" id="svg_44" transform="rotate(0,50,200)" width="10" x="45" y="195"/>
       <rect height="10" id="svg_45" transform="rotate(0,50,210)" width="10" x="45" y="205"/>
       <rect height="10" id="svg_46" transform="rotate(0,60,100)" width="10" x="55" y="95"/>
       <rect height="10" id="svg_47" transform="rotate(0,60,110)" width="10" x="55" y="105"/>
       <rect height="10" id="svg_48" transform="rotate(0,60,200)" width="10" x="55" y="195"/>
       <rect height="10" id="svg_49" transform="rotate(0,60,210)" width="10" x="55" y="205"/>
       <rect height="10" id="svg_50" transform="rotate(0,70,90)" width="10" x="65" y="85"/>
       <rect height="10" id="svg_51" transform="rotate(0,70,110)" width="10" x="65" y="105"/>
       <rect height="10" id="svg_52" transform="rotate(0,70,130)" width="10" x="65" y="125"/>
       <rect height="10" id="svg_53" transform="rotate(0,70,150)" width="10" x="65" y="145"/>
       <rect height="10" id="svg_54" transform="rotate(0,70,170)" width="10" x="65" y="165"/>
       <rect height="10" id="svg_55" transform="rotate(0,70,190)" width="10" x="65" y="185"/>
       <rect height="10" id="svg_56" transform="rotate(0,70,210)" width="10" x="65" y="205"/>
       <rect height="10" id="svg_57" transform="rotate(0,80,100)" width="10" x="75" y="95"/>
       <rect height="10" id="svg_58" transform="rotate(0,80,130)" width="10" x="75" y="125"/>
       <rect height="10" id="svg_59" transform="rotate(0,80,160)" width="10" x="75" y="155"/>
       <rect height="10" id="svg_60" transform="rotate(0,80,170)" width="10" x="75" y="165"/>
       <rect height="10" id="svg_61" transform="rotate(0,80,180)" width="10" x="75" y="175"/>
       <rect height="10" id="svg_62" transform="rotate(0,80,190)" width="10" x="75" y="185"/>
       <rect height="10" id="svg_63" transform="rotate(0,90,20)" width="10" x="85" y="15"/>
       <rect height="10" id="svg_64" transform="rotate(0,90,30)" width="10" x="85" y="25"/>
       <rect height="10" id="svg_65" transform="rotate(0,90,40)" width="10" x="85" y="35"/>
       <rect height="10" id="svg_66" transform="rotate(0,90,60)" width="10" x="85" y="55"/>
       <rect height="10" id="svg_67" transform="rotate(0,90,70)" width="10" x="85" y="65"/>
       <rect height="10" id="svg_68" transform="rotate(0,90,100)" width="10" x="85" y="95"/>
       <rect height="10" id="svg_69" transform="rotate(0,90,130)" width="10" x="85" y="125"/>
       <rect height="10" id="svg_70" transform="rotate(0,90,140)" width="10" x="85" y="135"/>
       <rect height="10" id="svg_71" transform="rotate(0,90,150)" width="10" x="85" y="145"/>
       <rect height="10" id="svg_72" transform="rotate(0,90,200)" width="10" x="85" y="195"/>
       <rect height="10" id="svg_73" transform="rotate(0,90,270)" width="10" x="85" y="265"/>
       <rect height="10" id="svg_74" transform="rotate(0,90,280)" width="10" x="85" y="275"/>
       <rect height="10" id="svg_75" transform="rotate(0,100,30)" width="10" x="95" y="25"/>
       <rect height="10" id="svg_76" transform="rotate(0,100,40)" width="10" x="95" y="35"/>
       <rect height="10" id="svg_77" transform="rotate(0,100,50)" width="10" x="95" y="45"/>
       <rect height="10" id="svg_78" transform="rotate(0,100,60)" width="10" x="95" y="55"/>
       <rect height="10" id="svg_79" transform="rotate(0,100,80)" width="10" x="95" y="75"/>
       <rect height="10" id="svg_80" transform="rotate(0,100,120)" width="10" x="95" y="115"/>
       <rect height="10" id="svg_81" transform="rotate(0,100,130)" width="10" x="95" y="125"/>
       <rect height="10" id="svg_82" transform="rotate(0,100,160)" width="10" x="95" y="155"/>
       <rect height="10" id="svg_83" transform="rotate(0,100,170)" width="10" x="95" y="165"/>
       <rect height="10" id="svg_84" transform="rotate(0,100,240)" width="10" x="95" y="235"/>
       <rect height="10" id="svg_85" transform="rotate(0,100,250)" width="10" x="95" y="245"/>
       <rect height="10" id="svg_86" transform="rotate(0,100,260)" width="10" x="95" y="255"/>
       <rect height="10" id="svg_87" transform="rotate(0,100,270)" width="10" x="95" y="265"/>
       <rect height="10" id="svg_88" transform="rotate(0,100,290)" width="10" x="95" y="285"/>
       <rect height="10" id="svg_89" transform="rotate(0,110,10)" width="10" x="105" y="5"/>
       <rect height="10" id="svg_90" transform="rotate(0,110,20)" width="10" x="105" y="15"/>
       <rect height="10" id="svg_91" transform="rotate(0,110,30)" width="10" x="105" y="25"/>
       <rect height="10" id="svg_92" transform="rotate(0,110,70)" width="10" x="105" y="65"/>
       <rect height="10" id="svg_93" transform="rotate(0,110,90)" width="10" x="105" y="85"/>
       <rect height="10" id="svg_94" transform="rotate(0,110,110)" width="10" x="105" y="105"/>
       <rect height="10" id="svg_95" transform="rotate(0,110,120)" width="10" x="105" y="115"/>
       <rect height="10" id="svg_96" transform="rotate(0,110,140)" width="10" x="105" y="135"/>
       <rect height="10" id="svg_97" transform="rotate(0,110,180)" width="10" x="105" y="175"/>
       <rect height="10" id="svg_98" transform="rotate(0,110,230)" width="10" x="105" y="225"/>
       <rect height="10" id="svg_99" transform="rotate(0,110,260)" width="10" x="105" y="255"/>
       <rect height="10" id="svg_100" transform="rotate(0,110,280)" width="10" x="105" y="275"/>
       <rect height="10" id="svg_101" transform="rotate(0,120,40)" width="10" x="115" y="35"/>
       <rect height="10" id="svg_102" transform="rotate(0,120,50)" width="10" x="115" y="45"/>
       <rect height="10" id="svg_103" transform="rotate(0,120,90)" width="10" x="115" y="85"/>
       <rect height="10" id="svg_104" transform="rotate(0,120,160)" width="10" x="115" y="155"/>
       <rect height="10" id="svg_105" transform="rotate(0,120,170)" width="10" x="115" y="165"/>
       <rect height="10" id="svg_106" transform="rotate(0,120,190)" width="10" x="115" y="185"/>
       <rect height="10" id="svg_107" transform="rotate(0,120,200)" width="10" x="115" y="195"/>
       <rect height="10" id="svg_108" transform="rotate(0,120,290)" width="10" x="115" y="285"/>
       <rect height="10" id="svg_109" transform="rotate(0,130,20)" width="10" x="125" y="15"/>
       <rect height="10" id="svg_110" transform="rotate(0,130,40)" width="10" x="125" y="35"/>
       <rect height="10" id="svg_111" transform="rotate(0,130,50)" width="10" x="125" y="45"/>
       <rect height="10" id="svg_112" transform="rotate(0,130,70)" width="10" x="125" y="65"/>
       <rect height="10" id="svg_113" transform="rotate(0,130,100)" width="10" x="125" y="95"/>
       <rect height="10" id="svg_114" transform="rotate(0,130,160)" width="10" x="125" y="155"/>
       <rect height="10" id="svg_115" transform="rotate(0,130,170)" width="10" x="125" y="165"/>
       <rect height="10" id="svg_116" transform="rotate(0,130,180)" width="10" x="125" y="175"/>
       <rect height="10" id="svg_117" transform="rotate(0,130,220)" width="10" x="125" y="215"/>
       <rect height="10" id="svg_118" transform="rotate(0,130,240)" width="10" x="125" y="235"/>
       <rect height="10" id="svg_119" transform="rotate(0,130,260)" width="10" x="125" y="255"/>
       <rect height="10" id="svg_120" transform="rotate(0,130,270)" width="10" x="125" y="265"/>
       <rect height="10" id="svg_121" transform="rotate(0,130,280)" width="10" x="125" y="275"/>
       <rect height="10" id="svg_122" transform="rotate(0,130,290)" width="10" x="125" y="285"/>
       <rect height="10" id="svg_123" transform="rotate(0,140,10)" width="10" x="135" y="5"/>
       <rect height="10" id="svg_124" transform="rotate(0,140,50)" width="10" x="135" y="45"/>
       <rect height="10" id="svg_125" transform="rotate(0,140,90)" width="10" x="135" y="85"/>
       <rect height="10" id="svg_126" transform="rotate(0,140,120)" width="10" x="135" y="115"/>
       <rect height="10" id="svg_127" transform="rotate(0,140,130)" width="10" x="135" y="125"/>
       <rect height="10" id="svg_128" transform="rotate(0,140,170)" width="10" x="135" y="165"/>
       <rect height="10" id="svg_129" transform="rotate(0,140,190)" width="10" x="135" y="185"/>
       <rect height="10" id="svg_130" transform="rotate(0,140,200)" width="10" x="135" y="195"/>
       <rect height="10" id="svg_131" transform="rotate(0,140,230)" width="10" x="135" y="225"/>
       <rect height="10" id="svg_132" transform="rotate(0,140,240)" width="10" x="135" y="235"/>
       <rect height="10" id="svg_133" transform="rotate(0,140,260)" width="10" x="135" y="255"/>
       <rect height="10" id="svg_134" transform="rotate(0,140,270)" width="10" x="135" y="265"/>
       <rect height="10" id="svg_135" transform="rotate(0,140,290)" width="10" x="135" y="285"/>
       <rect height="10" id="svg_136" transform="rotate(0,150,10)" width="10" x="145" y="5"/>
       <rect height="10" id="svg_137" transform="rotate(0,150,30)" width="10" x="145" y="25"/>
       <rect height="10" id="svg_138" transform="rotate(0,150,40)" width="10" x="145" y="35"/>
       <rect height="10" id="svg_139" transform="rotate(0,150,50)" width="10" x="145" y="45"/>
       <rect height="10" id="svg_140" transform="rotate(0,150,60)" width="10" x="145" y="55"/>
       <rect height="10" id="svg_141" transform="rotate(0,150,70)" width="10" x="145" y="65"/>
       <rect height="10" id="svg_142" transform="rotate(0,150,90)" width="10" x="145" y="85"/>
       <rect height="10" id="svg_143" transform="rotate(0,150,100)" width="10" x="145" y="95"/>
       <rect height="10" id="svg_144" transform="rotate(0,150,110)" width="10" x="145" y="105"/>
       <rect height="10" id="svg_145" transform="rotate(0,150,120)" width="10" x="145" y="115"/>
       <rect height="10" id="svg_146" transform="rotate(0,150,150)" width="10" x="145" y="145"/>
       <rect height="10" id="svg_147" transform="rotate(0,150,170)" width="10" x="145" y="165"/>
       <rect height="10" id="svg_148" transform="rotate(0,150,180)" width="10" x="145" y="175"/>
       <rect height="10" id="svg_149" transform="rotate(0,150,190)" width="10" x="145" y="185"/>
       <rect height="10" id="svg_150" transform="rotate(0,150,200)" width="10" x="145" y="195"/>
       <rect height="10" id="svg_151" transform="rotate(0,150,210)" width="10" x="145" y="205"/>
       <rect height="10" id="svg_152" transform="rotate(0,150,240)" width="10" x="145" y="235"/>
       <rect height="10" id="svg_153" transform="rotate(0,150,250)" width="10" x="145" y="245"/>
       <rect height="10" id="svg_154" transform="rotate(0,150,260)" width="10" x="145" y="255"/>
       <rect height="10" id="svg_155" transform="rotate(0,150,290)" width="10" x="145" y="285"/>
       <rect height="10" id="svg_156" transform="rotate(0,160,10)" width="10" x="155" y="5"/>
       <rect height="10" id="svg_157" transform="rotate(0,160,60)" width="10" x="155" y="55"/>
       <rect height="10" id="svg_158" transform="rotate(0,160,80)" width="10" x="155" y="75"/>
       <rect height="10" id="svg_159" transform="rotate(0,160,90)" width="10" x="155" y="85"/>
       <rect height="10" id="svg_160" transform="rotate(0,160,110)" width="10" x="155" y="105"/>
       <rect height="10" id="svg_161" transform="rotate(0,160,130)" width="10" x="155" y="125"/>
       <rect height="10" id="svg_162" transform="rotate(0,160,180)" width="10" x="155" y="175"/>
       <rect height="10" id="svg_163" transform="rotate(0,160,190)" width="10" x="155" y="185"/>
       <rect height="10" id="svg_164" transform="rotate(0,160,210)" width="10" x="155" y="205"/>
       <rect height="10" id="svg_165" transform="rotate(0,160,220)" width="10" x="155" y="215"/>
       <rect height="10" id="svg_166" transform="rotate(0,160,250)" width="10" x="155" y="245"/>
       <rect height="10" id="svg_167" transform="rotate(0,160,260)" width="10" x="155" y="255"/>
       <rect height="10" id="svg_168" transform="rotate(0,170,30)" width="10" x="165" y="25"/>
       <rect height="10" id="svg_169" transform="rotate(0,170,50)" width="10" x="165" y="45"/>
       <rect height="10" id="svg_170" transform="rotate(0,170,60)" width="10" x="165" y="55"/>
       <rect height="10" id="svg_171" transform="rotate(0,170,70)" width="10" x="165" y="65"/>
       <rect height="10" id="svg_172" transform="rotate(0,170,80)" width="10" x="165" y="75"/>
       <rect height="10" id="svg_173" transform="rotate(0,170,90)" width="10" x="165" y="85"/>
       <rect height="10" id="svg_174" transform="rotate(0,170,140)" width="10" x="165" y="135"/>
       <rect height="10" id="svg_175" transform="rotate(0,170,150)" width="10" x="165" y="145"/>
       <rect height="10" id="svg_176" transform="rotate(0,170,160)" width="10" x="165" y="155"/>
       <rect height="10" id="svg_177" transform="rotate(0,170,170)" width="10" x="165" y="165"/>
       <rect height="10" id="svg_178" transform="rotate(0,170,180)" width="10" x="165" y="175"/>
       <rect height="10" id="svg_179" transform="rotate(0,170,190)" width="10" x="165" y="185"/>
       <rect height="10" id="svg_180" transform="rotate(0,170,200)" width="10" x="165" y="195"/>
       <rect height="10" id="svg_181" transform="rotate(0,170,220)" width="10" x="165" y="215"/>
       <rect height="10" id="svg_182" transform="rotate(0,170,240)" width="10" x="165" y="235"/>
       <rect height="10" id="svg_183" transform="rotate(0,170,260)" width="10" x="165" y="255"/>
       <rect height="10" id="svg_184" transform="rotate(0,170,280)" width="10" x="165" y="275"/>
       <rect height="10" id="svg_185" transform="rotate(0,170,290)" width="10" x="165" y="285"/>
       <rect height="10" id="svg_186" transform="rotate(0,180,30)" width="10" x="175" y="25"/>
       <rect height="10" id="svg_187" transform="rotate(0,180,40)" width="10" x="175" y="35"/>
       <rect height="10" id="svg_188" transform="rotate(0,180,80)" width="10" x="175" y="75"/>
       <rect height="10" id="svg_189" transform="rotate(0,180,90)" width="10" x="175" y="85"/>
       <rect height="10" id="svg_190" transform="rotate(0,180,130)" width="10" x="175" y="125"/>
       <rect height="10" id="svg_191" transform="rotate(0,180,140)" width="10" x="175" y="135"/>
       <rect height="10" id="svg_192" transform="rotate(0,180,170)" width="10" x="175" y="165"/>
       <rect height="10" id="svg_193" transform="rotate(0,180,220)" width="10" x="175" y="215"/>
       <rect height="10" id="svg_194" transform="rotate(0,180,240)" width="10" x="175" y="235"/>
       <rect height="10" id="svg_195" transform="rotate(0,190,10)" width="10" x="185" y="5"/>
       <rect height="10" id="svg_196" transform="rotate(0,190,70)" width="10" x="185" y="65"/>
       <rect height="10" id="svg_197" transform="rotate(0,190,80)" width="10" x="185" y="75"/>
       <rect height="10" id="svg_198" transform="rotate(0,190,110)" width="10" x="185" y="105"/>
       <rect height="10" id="svg_199" transform="rotate(0,190,140)" width="10" x="185" y="135"/>
       <rect height="10" id="svg_200" transform="rotate(0,190,160)" width="10" x="185" y="155"/>
       <rect height="10" id="svg_201" transform="rotate(0,190,170)" width="10" x="185" y="165"/>
       <rect height="10" id="svg_202" transform="rotate(0,190,180)" width="10" x="185" y="175"/>
       <rect height="10" id="svg_203" transform="rotate(0,190,190)" width="10" x="185" y="185"/>
       <rect height="10" id="svg_204" transform="rotate(0,190,210)" width="10" x="185" y="205"/>
       <rect height="10" id="svg_205" transform="rotate(0,190,230)" width="10" x="185" y="225"/>
       <rect height="10" id="svg_206" transform="rotate(0,190,270)" width="10" x="185" y="265"/>
       <rect height="10" id="svg_207" transform="rotate(0,200,30)" width="10" x="195" y="25"/>
       <rect height="10" id="svg_208" transform="rotate(0,200,40)" width="10" x="195" y="35"/>
       <rect height="10" id="svg_209" transform="rotate(0,200,90)" width="10" x="195" y="85"/>
       <rect height="10" id="svg_210" transform="rotate(0,200,100)" width="10" x="195" y="95"/>
       <rect height="10" id="svg_211" transform="rotate(0,200,110)" width="10" x="195" y="105"/>
       <rect height="10" id="svg_212" transform="rotate(0,200,120)" width="10" x="195" y="115"/>
       <rect height="10" id="svg_213" transform="rotate(0,200,130)" width="10" x="195" y="125"/>
       <rect height="10" id="svg_214" transform="rotate(0,200,140)" width="10" x="195" y="135"/>
       <rect height="10" id="svg_215" transform="rotate(0,200,150)" width="10" x="195" y="145"/>
       <rect height="10" id="svg_216" transform="rotate(0,200,180)" width="10" x="195" y="175"/>
       <rect height="10" id="svg_217" transform="rotate(0,200,200)" width="10" x="195" y="195"/>
       <rect height="10" id="svg_218" transform="rotate(0,200,210)" width="10" x="195" y="205"/>
       <rect height="10" id="svg_219" transform="rotate(0,200,220)" width="10" x="195" y="215"/>
       <rect height="10" id="svg_220" transform="rotate(0,200,230)" width="10" x="195" y="225"/>
       <rect height="10" id="svg_221" transform="rotate(0,200,240)" width="10" x="195" y="235"/>
       <rect height="10" id="svg_222" transform="rotate(0,200,260)" width="10" x="195" y="255"/>
       <rect height="10" id="svg_223" transform="rotate(0,200,270)" width="10" x="195" y="265"/>
       <rect height="10" id="svg_224" transform="rotate(0,200,290)" width="10" x="195" y="285"/>
       <rect height="10" id="svg_225" transform="rotate(0,210,20)" width="10" x="205" y="15"/>
       <rect height="10" id="svg_226" transform="rotate(0,210,60)" width="10" x="205" y="55"/>
       <rect height="10" id="svg_227" transform="rotate(0,210,70)" width="10" x="205" y="65"/>
       <rect height="10" id="svg_228" transform="rotate(0,210,80)" width="10" x="205" y="75"/>
       <rect height="10" id="svg_229" transform="rotate(0,210,90)" width="10" x="205" y="85"/>
       <rect height="10" id="svg_230" transform="rotate(0,210,140)" width="10" x="205" y="135"/>
       <rect height="10" id="svg_231" transform="rotate(0,210,150)" width="10" x="205" y="145"/>
       <rect height="10" id="svg_232" transform="rotate(0,210,170)" width="10" x="205" y="165"/>
       <rect height="10" id="svg_233" transform="rotate(0,210,180)" width="10" x="205" y="175"/>
       <rect height="10" id="svg_234" transform="rotate(0,210,200)" width="10" x="205" y="195"/>
       <rect height="10" id="svg_235" transform="rotate(0,210,210)" width="10" x="205" y="205"/>
       <rect height="10" id="svg_236" transform="rotate(0,210,220)" width="10" x="205" y="215"/>
       <rect height="10" id="svg_237" transform="rotate(0,210,230)" width="10" x="205" y="225"/>
       <rect height="10" id="svg_238" transform="rotate(0,210,240)" width="10" x="205" y="235"/>
       <rect height="10" id="svg_239" transform="rotate(0,210,250)" width="10" x="205" y="245"/>
       <rect height="10" id="svg_240" transform="rotate(0,210,260)" width="10" x="205" y="255"/>
       <rect height="10" id="svg_241" transform="rotate(0,210,270)" width="10" x="205" y="265"/>
       <rect height="10" id="svg_242" transform="rotate(0,220,90)" width="10" x="215" y="85"/>
       <rect height="10" id="svg_243" transform="rotate(0,220,100)" width="10" x="215" y="95"/>
       <rect height="10" id="svg_244" transform="rotate(0,220,110)" width="10" x="215" y="105"/>
       <rect height="10" id="svg_245" transform="rotate(0,220,130)" width="10" x="215" y="125"/>
       <rect height="10" id="svg_246" transform="rotate(0,220,140)" width="10" x="215" y="135"/>
       <rect height="10" id="svg_247" transform="rotate(0,220,170)" width="10" x="215" y="165"/>
       <rect height="10" id="svg_248" transform="rotate(0,220,190)" width="10" x="215" y="185"/>
       <rect height="10" id="svg_249" transform="rotate(0,220,210)" width="10" x="215" y="205"/>
       <rect height="10" id="svg_250" transform="rotate(0,220,250)" width="10" x="215" y="245"/>
       <rect height="10" id="svg_251" transform="rotate(0,220,260)" width="10" x="215" y="255"/>
       <rect height="10" id="svg_252" transform="rotate(0,220,280)" width="10" x="215" y="275"/>
       <rect height="10" id="svg_253" transform="rotate(0,220,290)" width="10" x="215" y="285"/>
       <rect height="10" id="svg_254" transform="rotate(0,230,120)" width="10" x="225" y="115"/>
       <rect height="10" id="svg_255" transform="rotate(0,230,130)" width="10" x="225" y="125"/>
       <rect height="10" id="svg_256" transform="rotate(0,230,140)" width="10" x="225" y="135"/>
       <rect height="10" id="svg_257" transform="rotate(0,230,150)" width="10" x="225" y="145"/>
       <rect height="10" id="svg_258" transform="rotate(0,230,170)" width="10" x="225" y="165"/>
       <rect height="10" id="svg_259" transform="rotate(0,230,180)" width="10" x="225" y="175"/>
       <rect height="10" id="svg_260" transform="rotate(0,230,200)" width="10" x="225" y="195"/>
       <rect height="10" id="svg_261" transform="rotate(0,230,210)" width="10" x="225" y="205"/>
       <rect height="10" id="svg_262" transform="rotate(0,230,230)" width="10" x="225" y="225"/>
       <rect height="10" id="svg_263" transform="rotate(0,230,250)" width="10" x="225" y="245"/>
       <rect height="10" id="svg_264" transform="rotate(0,230,270)" width="10" x="225" y="265"/>
       <rect height="10" id="svg_265" transform="rotate(0,230,280)" width="10" x="225" y="275"/>
       <rect height="10" id="svg_266" transform="rotate(0,240,90)" width="10" x="235" y="85"/>
       <rect height="10" id="svg_267" transform="rotate(0,240,130)" width="10" x="235" y="125"/>
       <rect height="10" id="svg_268" transform="rotate(0,240,140)" width="10" x="235" y="135"/>
       <rect height="10" id="svg_269" transform="rotate(0,240,150)" width="10" x="235" y="145"/>
       <rect height="10" id="svg_270" transform="rotate(0,240,160)" width="10" x="235" y="155"/>
       <rect height="10" id="svg_271" transform="rotate(0,240,170)" width="10" x="235" y="165"/>
       <rect height="10" id="svg_272" transform="rotate(0,240,190)" width="10" x="235" y="185"/>
       <rect height="10" id="svg_273" transform="rotate(0,240,210)" width="10" x="235" y="205"/>
       <rect height="10" id="svg_274" transform="rotate(0,240,250)" width="10" x="235" y="245"/>
       <rect height="10" id="svg_275" transform="rotate(0,240,280)" width="10" x="235" y="275"/>
       <rect height="10" id="svg_276" transform="rotate(0,250,100)" width="10" x="245" y="95"/>
       <rect height="10" id="svg_277" transform="rotate(0,250,110)" width="10" x="245" y="105"/>
       <rect height="10" id="svg_278" transform="rotate(0,250,120)" width="10" x="245" y="115"/>
       <rect height="10" id="svg_279" transform="rotate(0,250,140)" width="10" x="245" y="135"/>
       <rect height="10" id="svg_280" transform="rotate(0,250,160)" width="10" x="245" y="155"/>
       <rect height="10" id="svg_281" transform="rotate(0,250,190)" width="10" x="245" y="185"/>
       <rect height="10" id="svg_282" transform="rotate(0,250,210)" width="10" x="245" y="205"/>
       <rect height="10" id="svg_283" transform="rotate(0,250,220)" width="10" x="245" y="215"/>
       <rect height="10" id="svg_284" transform="rotate(0,250,230)" width="10" x="245" y="225"/>
       <rect height="10" id="svg_285" transform="rotate(0,250,240)" width="10" x="245" y="235"/>
       <rect height="10" id="svg_286" transform="rotate(0,250,250)" width="10" x="245" y="245"/>
       <rect height="10" id="svg_287" transform="rotate(0,250,260)" width="10" x="245" y="255"/>
       <rect height="10" id="svg_288" transform="rotate(0,250,270)" width="10" x="245" y="265"/>
       <rect height="10" id="svg_289" transform="rotate(0,250,290)" width="10" x="245" y="285"/>
       <rect height="10" id="svg_290" transform="rotate(0,260,90)" width="10" x="255" y="85"/>
       <rect height="10" id="svg_291" transform="rotate(0,260,110)" width="10" x="255" y="105"/>
       <rect height="10" id="svg_292" transform="rotate(0,260,120)" width="10" x="255" y="115"/>
       <rect height="10" id="svg_293" transform="rotate(0,260,130)" width="10" x="255" y="125"/>
       <rect height="10" id="svg_294" transform="rotate(0,260,150)" width="10" x="255" y="145"/>
       <rect height="10" id="svg_295" transform="rotate(0,260,170)" width="10" x="255" y="165"/>
       <rect height="10" id="svg_296" transform="rotate(0,260,190)" width="10" x="255" y="185"/>
       <rect height="10" id="svg_297" transform="rotate(0,260,200)" width="10" x="255" y="195"/>
       <rect height="10" id="svg_298" transform="rotate(0,260,250)" width="10" x="255" y="245"/>
       <rect height="10" id="svg_299" transform="rotate(0,260,270)" width="10" x="255" y="265"/>
       <rect height="10" id="svg_300" transform="rotate(0,260,280)" width="10" x="255" y="275"/>
       <rect height="10" id="svg_301" transform="rotate(0,270,90)" width="10" x="265" y="85"/>
       <rect height="10" id="svg_302" transform="rotate(0,270,100)" width="10" x="265" y="95"/>
       <rect height="10" id="svg_303" transform="rotate(0,270,110)" width="10" x="265" y="105"/>
       <rect height="10" id="svg_304" transform="rotate(0,270,150)" width="10" x="265" y="145"/>
       <rect height="10" id="svg_305" transform="rotate(0,270,160)" width="10" x="265" y="155"/>
       <rect height="10" id="svg_306" transform="rotate(0,270,170)" width="10" x="265" y="165"/>
       <rect height="10" id="svg_307" transform="rotate(0,270,180)" width="10" x="265" y="175"/>
       <rect height="10" id="svg_308" transform="rotate(0,270,190)" width="10" x="265" y="185"/>
       <rect height="10" id="svg_309" transform="rotate(0,270,210)" width="10" x="265" y="205"/>
       <rect height="10" id="svg_310" transform="rotate(0,270,240)" width="10" x="265" y="235"/>
       <rect height="10" id="svg_311" transform="rotate(0,270,270)" width="10" x="265" y="265"/>
       <rect height="10" id="svg_312" transform="rotate(0,270,290)" width="10" x="265" y="285"/>
       <rect height="10" id="svg_313" transform="rotate(0,280,90)" width="10" x="275" y="85"/>
       <rect height="10" id="svg_314" transform="rotate(0,280,100)" width="10" x="275" y="95"/>
       <rect height="10" id="svg_315" transform="rotate(0,280,110)" width="10" x="275" y="105"/>
       <rect height="10" id="svg_316" transform="rotate(0,280,120)" width="10" x="275" y="115"/>
       <rect height="10" id="svg_317" transform="rotate(0,280,130)" width="10" x="275" y="125"/>
       <rect height="10" id="svg_318" transform="rotate(0,280,150)" width="10" x="275" y="145"/>
       <rect height="10" id="svg_319" transform="rotate(0,280,170)" width="10" x="275" y="165"/>
       <rect height="10" id="svg_320" transform="rotate(0,280,190)" width="10" x="275" y="185"/>
       <rect height="10" id="svg_321" transform="rotate(0,280,200)" width="10" x="275" y="195"/>
       <rect height="10" id="svg_322" transform="rotate(0,280,220)" width="10" x="275" y="215"/>
       <rect height="10" id="svg_323" transform="rotate(0,280,250)" width="10" x="275" y="245"/>
       <rect height="10" id="svg_324" transform="rotate(0,280,260)" width="10" x="275" y="255"/>
       <rect height="10" id="svg_325" transform="rotate(0,280,280)" width="10" x="275" y="275"/>
       <rect height="10" id="svg_326" transform="rotate(0,290,100)" width="10" x="285" y="95"/>
       <rect height="10" id="svg_327" transform="rotate(0,290,110)" width="10" x="285" y="105"/>
       <rect height="10" id="svg_328" transform="rotate(0,290,130)" width="10" x="285" y="125"/>
       <rect height="10" id="svg_329" transform="rotate(0,290,160)" width="10" x="285" y="155"/>
       <rect height="10" id="svg_330" transform="rotate(0,290,190)" width="10" x="285" y="185"/>
       <rect height="10" id="svg_331" transform="rotate(0,290,200)" width="10" x="285" y="195"/>
       <rect height="10" id="svg_332" transform="rotate(0,290,210)" width="10" x="285" y="205"/>
       <rect height="10" id="svg_333" transform="rotate(0,290,240)" width="10" x="285" y="235"/>
       <rect height="10" id="svg_334" transform="rotate(0,290,260)" width="10" x="285" y="255"/>
       <rect height="10" id="svg_335" transform="rotate(0,290,280)" width="10" x="285" y="275"/>
      </g>
      <g class="corners-square-color-0-0" id="svg_336">
       <rect height="10" id="svg_337" transform="rotate(0,10,10)" width="10" x="5" y="5"/>
       <rect height="10" id="svg_338" transform="rotate(0,10,20)" width="10" x="5" y="15"/>
       <rect height="10" id="svg_339" transform="rotate(0,10,30)" width="10" x="5" y="25"/>
       <rect height="10" id="svg_340" transform="rotate(0,10,40)" width="10" x="5" y="35"/>
       <rect height="10" id="svg_341" transform="rotate(0,10,50)" width="10" x="5" y="45"/>
       <rect height="10" id="svg_342" transform="rotate(0,10,60)" width="10" x="5" y="55"/>
       <rect height="10" id="svg_343" transform="rotate(0,10,70)" width="10" x="5" y="65"/>
       <rect height="10" id="svg_344" transform="rotate(0,20,10)" width="10" x="15" y="5"/>
       <rect height="10" id="svg_345" transform="rotate(0,20,70)" width="10" x="15" y="65"/>
       <rect height="10" id="svg_346" transform="rotate(0,30,10)" width="10" x="25" y="5"/>
       <rect height="10" id="svg_347" transform="rotate(0,30,70)" width="10" x="25" y="65"/>
       <rect height="10" id="svg_348" transform="rotate(0,40,10)" width="10" x="35" y="5"/>
       <rect height="10" id="svg_349" transform="rotate(0,40,70)" width="10" x="35" y="65"/>
       <rect height="10" id="svg_350" transform="rotate(0,50,10)" width="10" x="45" y="5"/>
       <rect height="10" id="svg_351" transform="rotate(0,50,70)" width="10" x="45" y="65"/>
       <rect height="10" id="svg_352" transform="rotate(0,60,10)" width="10" x="55" y="5"/>
       <rect height="10" id="svg_353" transform="rotate(0,60,70)" width="10" x="55" y="65"/>
       <rect height="10" id="svg_354" transform="rotate(0,70,10)" width="10" x="65" y="5"/>
       <rect height="10" id="svg_355" transform="rotate(0,70,20)" width="10" x="65" y="15"/>
       <rect height="10" id="svg_356" transform="rotate(0,70,30)" width="10" x="65" y="25"/>
       <rect height="10" id="svg_357" transform="rotate(0,70,40)" width="10" x="65" y="35"/>
       <rect height="10" id="svg_358" transform="rotate(0,70,50)" width="10" x="65" y="45"/>
       <rect height="10" id="svg_359" transform="rotate(0,70,60)" width="10" x="65" y="55"/>
       <rect height="10" id="svg_360" transform="rotate(0,70,70)" width="10" x="65" y="65"/>
      </g>
      <g class="corners-dot-color-0-0" id="svg_361">
       <rect height="10" id="svg_362" transform="rotate(0,30,30)" width="10" x="25" y="25"/>
       <rect height="10" id="svg_363" transform="rotate(0,30,40)" width="10" x="25" y="35"/>
       <rect height="10" id="svg_364" transform="rotate(0,30,50)" width="10" x="25" y="45"/>
       <rect height="10" id="svg_365" transform="rotate(0,40,30)" width="10" x="35" y="25"/>
       <rect height="10" id="svg_366" transform="rotate(0,40,40)" width="10" x="35" y="35"/>
       <rect height="10" id="svg_367" transform="rotate(0,40,50)" width="10" x="35" y="45"/>
       <rect height="10" id="svg_368" transform="rotate(0,50,30)" width="10" x="45" y="25"/>
       <rect height="10" id="svg_369" transform="rotate(0,50,40)" width="10" x="45" y="35"/>
       <rect height="10" id="svg_370" transform="rotate(0,50,50)" width="10" x="45" y="45"/>
      </g>
      <g class="corners-square-color-1-0" id="svg_371">
       <rect height="10" id="svg_372" transform="rotate(0,230,10)" width="10" x="225" y="5"/>
       <rect height="10" id="svg_373" transform="rotate(0,230,20)" width="10" x="225" y="15"/>
       <rect height="10" id="svg_374" transform="rotate(0,230,30)" width="10" x="225" y="25"/>
       <rect height="10" id="svg_375" transform="rotate(0,230,40)" width="10" x="225" y="35"/>
       <rect height="10" id="svg_376" transform="rotate(0,230,50)" width="10" x="225" y="45"/>
       <rect height="10" id="svg_377" transform="rotate(0,230,60)" width="10" x="225" y="55"/>
       <rect height="10" id="svg_378" transform="rotate(0,230,70)" width="10" x="225" y="65"/>
       <rect height="10" id="svg_379" transform="rotate(0,240,10)" width="10" x="235" y="5"/>
       <rect height="10" id="svg_380" transform="rotate(0,240,70)" width="10" x="235" y="65"/>
       <rect height="10" id="svg_381" transform="rotate(0,250,10)" width="10" x="245" y="5"/>
       <rect height="10" id="svg_382" transform="rotate(0,250,70)" width="10" x="245" y="65"/>
       <rect height="10" id="svg_383" transform="rotate(0,260,10)" width="10" x="255" y="5"/>
       <rect height="10" id="svg_384" transform="rotate(0,260,70)" width="10" x="255" y="65"/>
       <rect height="10" id="svg_385" transform="rotate(0,270,10)" width="10" x="265" y="5"/>
       <rect height="10" id="svg_386" transform="rotate(0,270,70)" width="10" x="265" y="65"/>
       <rect height="10" id="svg_387" transform="rotate(0,280,10)" width="10" x="275" y="5"/>
       <rect height="10" id="svg_388" transform="rotate(0,280,70)" width="10" x="275" y="65"/>
       <rect height="10" id="svg_389" transform="rotate(0,290,10)" width="10" x="285" y="5"/>
       <rect height="10" id="svg_390" transform="rotate(0,290,20)" width="10" x="285" y="15"/>
       <rect height="10" id="svg_391" transform="rotate(0,290,30)" width="10" x="285" y="25"/>
       <rect height="10" id="svg_392" transform="rotate(0,290,40)" width="10" x="285" y="35"/>
       <rect height="10" id="svg_393" transform="rotate(0,290,50)" width="10" x="285" y="45"/>
       <rect height="10" id="svg_394" transform="rotate(0,290,60)" width="10" x="285" y="55"/>
       <rect height="10" id="svg_395" transform="rotate(0,290,70)" width="10" x="285" y="65"/>
      </g>
      <g class="corners-dot-color-1-0" id="svg_396">
       <rect height="10" id="svg_397" transform="rotate(0,250,30)" width="10" x="245" y="25"/>
       <rect height="10" id="svg_398" transform="rotate(0,250,40)" width="10" x="245" y="35"/>
       <rect height="10" id="svg_399" transform="rotate(0,250,50)" width="10" x="245" y="45"/>
       <rect height="10" id="svg_400" transform="rotate(0,260,30)" width="10" x="255" y="25"/>
       <rect height="10" id="svg_401" transform="rotate(0,260,40)" width="10" x="255" y="35"/>
       <rect height="10" id="svg_402" transform="rotate(0,260,50)" width="10" x="255" y="45"/>
       <rect height="10" id="svg_403" transform="rotate(0,270,30)" width="10" x="265" y="25"/>
       <rect height="10" id="svg_404" transform="rotate(0,270,40)" width="10" x="265" y="35"/>
       <rect height="10" id="svg_405" transform="rotate(0,270,50)" width="10" x="265" y="45"/>
      </g>
      <g class="corners-square-color-0-1" id="svg_406">
       <rect height="10" id="svg_407" transform="rotate(0,10,230)" width="10" x="5" y="225"/>
       <rect height="10" id="svg_408" transform="rotate(0,10,240)" width="10" x="5" y="235"/>
       <rect height="10" id="svg_409" transform="rotate(0,10,250)" width="10" x="5" y="245"/>
       <rect height="10" id="svg_410" transform="rotate(0,10,260)" width="10" x="5" y="255"/>
       <rect height="10" id="svg_411" transform="rotate(0,10,270)" width="10" x="5" y="265"/>
       <rect height="10" id="svg_412" transform="rotate(0,10,280)" width="10" x="5" y="275"/>
       <rect height="10" id="svg_413" transform="rotate(0,10,290)" width="10" x="5" y="285"/>
       <rect height="10" id="svg_414" transform="rotate(0,20,230)" width="10" x="15" y="225"/>
       <rect height="10" id="svg_415" transform="rotate(0,20,290)" width="10" x="15" y="285"/>
       <rect height="10" id="svg_416" transform="rotate(0,30,230)" width="10" x="25" y="225"/>
       <rect height="10" id="svg_417" transform="rotate(0,30,290)" width="10" x="25" y="285"/>
       <rect height="10" id="svg_418" transform="rotate(0,40,230)" width="10" x="35" y="225"/>
       <rect height="10" id="svg_419" transform="rotate(0,40,290)" width="10" x="35" y="285"/>
       <rect height="10" id="svg_420" transform="rotate(0,50,230)" width="10" x="45" y="225"/>
       <rect height="10" id="svg_421" transform="rotate(0,50,290)" width="10" x="45" y="285"/>
       <rect height="10" id="svg_422" transform="rotate(0,60,230)" width="10" x="55" y="225"/>
       <rect height="10" id="svg_423" transform="rotate(0,60,290)" width="10" x="55" y="285"/>
       <rect height="10" id="svg_424" transform="rotate(0,70,230)" width="10" x="65" y="225"/>
       <rect height="10" id="svg_425" transform="rotate(0,70,240)" width="10" x="65" y="235"/>
       <rect height="10" id="svg_426" transform="rotate(0,70,250)" width="10" x="65" y="245"/>
       <rect height="10" id="svg_427" transform="rotate(0,70,260)" width="10" x="65" y="255"/>
       <rect height="10" id="svg_428" transform="rotate(0,70,270)" width="10" x="65" y="265"/>
       <rect height="10" id="svg_429" transform="rotate(0,70,280)" width="10" x="65" y="275"/>
       <rect height="10" id="svg_430" transform="rotate(0,70,290)" width="10" x="65" y="285"/>
      </g>
      <g class="corners-dot-color-0-1" id="svg_431">
       <rect height="10" id="svg_432" transform="rotate(0,30,250)" width="10" x="25" y="245"/>
       <rect height="10" id="svg_433" transform="rotate(0,30,260)" width="10" x="25" y="255"/>
       <rect height="10" id="svg_434" transform="rotate(0,30,270)" width="10" x="25" y="265"/>
       <rect height="10" id="svg_435" transform="rotate(0,40,250)" width="10" x="35" y="245"/>
       <rect height="10" id="svg_436" transform="rotate(0,40,260)" width="10" x="35" y="255"/>
       <rect height="10" id="svg_437" transform="rotate(0,40,270)" width="10" x="35" y="265"/>
       <rect height="10" id="svg_438" transform="rotate(0,50,250)" width="10" x="45" y="245"/>
       <rect height="10" id="svg_439" transform="rotate(0,50,260)" width="10" x="45" y="255"/>
       <rect height="10" id="svg_440" transform="rotate(0,50,270)" width="10" x="45" y="265"/>
      </g>
     </svg>
    </g>
   </svg>
  </g>
  <text fill="#ffffff" font-family="Serif" font-size="24" id="svg_441" stroke="#ffffff" stroke-width="0" text-anchor="middle" x="166.5" xml:space="preserve" y="277">Відскануй</text>
 </g>
</svg>